<?xml version="1.0" standalone="no"?><!DOCTYPE svg PUBLIC "-//W3C//DTD SVG 1.1//EN" "http://www.w3.org/Graphics/SVG/1.1/DTD/svg11.dtd"><svg t="1710757587537" class="icon" viewBox="0 0 1024 1024" version="1.1" xmlns="http://www.w3.org/2000/svg" p-id="3313" xmlns:xlink="http://www.w3.org/1999/xlink" width="200" height="200"><path d="M533.2 928.4c-217.7 0-394.8-177.1-394.8-394.8l0.1-8c0.7-36.9 6.6-73.3 17.3-108.2 5.1-16.7 22.8-26 39.5-20.9 16.7 5.1 26 22.8 20.9 39.5-9 29.3-13.9 59.9-14.6 90.9l-0.1 6.8c0 182.9 148.8 331.7 331.7 331.7s331.7-148.8 331.7-331.7S716 201.9 533.2 201.9h-5.4c-26.5 0.4-52.9 4-78.4 10.6-16.9 4.4-34.1-5.7-38.5-22.6-4.4-16.9 5.7-34.1 22.6-38.5 30.4-7.9 61.8-12.2 93.4-12.7l6.4-0.1c217.7 0 394.8 177.1 394.8 394.8s-177.2 395-394.9 395z" p-id="3314"></path><path d="M533.2 767.7C404 767.7 299 662.7 299 533.6c0-2.9 0.1-5.7 0.1-8.5 0.8-23.3 5.1-46.3 12.7-68.2 5.7-16.5 23.7-25.2 40.2-19.5 16.5 5.7 25.2 23.7 19.5 40.2-5.5 16-8.6 32.7-9.3 49.7-0.1 2.1-0.1 4.2-0.1 6.3 0 94.3 76.7 171 171 171s171-76.7 171-171-76.7-171-171-171l-5 0.1c-12.6 0.4-25.1 2.1-37.3 5.2-16.9 4.3-34.1-5.9-38.4-22.8-4.3-16.9 5.9-34.1 22.8-38.4 16.6-4.2 33.8-6.6 51.1-7.1 2.3-0.1 4.5-0.1 6.8-0.1 129.1 0 234.2 105 234.2 234.2s-105 234-234.1 234z" p-id="3315"></path><path d="M533.2 533.6m-55.3 0a55.3 55.3 0 1 0 110.6 0 55.3 55.3 0 1 0-110.6 0Z" p-id="3316"></path><path d="M533.5 533.9c-12.3 12.3-32.4 12.3-44.7 0l-268-268c-12.3-12.3-12.3-32.4 0-44.7 12.3-12.3 32.4-12.3 44.7 0l268 268c12.3 12.3 12.3 32.4 0 44.7z" p-id="3317"></path><path d="M304.4 304.8l-84.9 15.6L98 198.9l85-15.5zM304.2 304.6l15.6-84.9L198.3 98.2l-15.5 85" p-id="3318"></path></svg>