<?xml version="1.0" standalone="no"?><!DOCTYPE svg PUBLIC "-//W3C//DTD SVG 1.1//EN" "http://www.w3.org/Graphics/SVG/1.1/DTD/svg11.dtd"><svg t="1715143933895" class="icon" viewBox="0 0 1024 1024" version="1.1" xmlns="http://www.w3.org/2000/svg" p-id="6643" xmlns:xlink="http://www.w3.org/1999/xlink" width="200" height="200"><path d="M524.8 486.4c19.2 0 32-12.8 32-32V268.8c102.4 12.8 192 76.8 236.8 172.8 6.4 19.2 25.6 25.6 44.8 12.8 19.2-6.4 25.6-25.6 12.8-44.8l-19.2-38.4c44.8-38.4 76.8-76.8 102.4-128 6.4-12.8 0-32-12.8-44.8-12.8-6.4-32 0-44.8 12.8-25.6 44.8-51.2 83.2-83.2 108.8-25.6-25.6-51.2-51.2-76.8-64 0-6.4 6.4-6.4 6.4-12.8 0-12.8 6.4-25.6 6.4-38.4C729.6 96 640 6.4 531.2 6.4S320 102.4 320 211.2c0 12.8 0 25.6 6.4 38.4 0 6.4 0 6.4 6.4 6.4-32 19.2-57.6 38.4-83.2 64-32-25.6-57.6-64-76.8-102.4-12.8-19.2-32-25.6-44.8-12.8-19.2 6.4-25.6 25.6-12.8 38.4 25.6 51.2 57.6 96 102.4 128-32 44.8-51.2 96-57.6 147.2H44.8c-19.2 0-32 12.8-32 32s12.8 32 32 32h121.6c6.4 44.8 12.8 89.6 32 128-51.2 38.4-96 89.6-121.6 147.2-6.4 12.8 0 32 12.8 44.8 6.4 0 6.4 6.4 12.8 6.4 12.8 0 25.6-6.4 32-19.2 19.2-44.8 57.6-89.6 96-121.6 44.8 64 115.2 115.2 198.4 134.4h6.4c12.8 0 25.6-6.4 32-25.6 6.4-19.2-6.4-32-25.6-38.4-128-32-217.6-153.6-217.6-288 0-153.6 115.2-275.2 262.4-294.4v185.6c6.4 25.6 19.2 44.8 38.4 44.8zM384 211.2c0-76.8 64-134.4 140.8-134.4 76.8 0 134.4 57.6 134.4 134.4v19.2c-44.8-19.2-89.6-32-140.8-32-44.8 0-89.6 6.4-134.4 25.6 6.4-6.4 0-6.4 0-12.8z" fill="" p-id="6644"></path><path d="M1004.8 960l-89.6-89.6c70.4-96 64-224-19.2-313.6-96-96-243.2-96-339.2 0s-96 243.2 0 339.2c44.8 44.8 108.8 70.4 166.4 70.4 51.2 0 102.4-19.2 140.8-51.2l89.6 89.6c6.4 6.4 12.8 6.4 25.6 6.4s19.2 0 25.6-6.4c12.8-12.8 12.8-32 0-44.8z m-396.8-108.8c-70.4-70.4-70.4-179.2 0-249.6 32-32 76.8-51.2 121.6-51.2s89.6 19.2 121.6 51.2c70.4 70.4 70.4 179.2 0 249.6s-179.2 70.4-243.2 0z" fill="" p-id="6645"></path></svg>