<?xml version="1.0" standalone="no"?><!DOCTYPE svg PUBLIC "-//W3C//DTD SVG 1.1//EN" "http://www.w3.org/Graphics/SVG/1.1/DTD/svg11.dtd"><svg t="1715144062400" class="icon" viewBox="0 0 1088 1024" version="1.1" xmlns="http://www.w3.org/2000/svg" p-id="7925" xmlns:xlink="http://www.w3.org/1999/xlink" width="212.5" height="200"><path d="M853.333333 458.666667h21.333334v21.333333h-21.333334zM680.533333 217.6h21.333334v21.333333h-21.333334zM740.266667 264.533333h21.333333v21.333334h-21.333333zM629.333333 177.066667h21.333334v21.333333h-21.333334zM398.933333 177.066667h21.333334v21.333333h-21.333334zM343.466667 217.6h21.333333v21.333333h-21.333333zM285.866667 264.533333h21.333333v21.333334h-21.333333zM174.933333 458.666667h21.333334v21.333333h-21.333334zM174.933333 520.533333h21.333334v21.333334h-21.333334zM174.933333 576h21.333334v21.333333h-21.333334zM292.266667 759.466667h21.333333v21.333333h-21.333333zM347.733333 800h21.333334v21.333333h-21.333334zM403.2 846.933333h21.333333v21.333334h-21.333333zM629.333333 846.933333h21.333334v21.333334h-21.333334zM454.4 514.133333h21.333333v21.333334h-21.333333zM512 514.133333h21.333333v21.333334h-21.333333zM567.466667 514.133333h21.333333v21.333334h-21.333333zM680.533333 800h21.333334v21.333333h-21.333334zM740.266667 759.466667h21.333333v21.333333h-21.333333zM853.333333 520.533333h21.333334v21.333334h-21.333334zM853.333333 576h21.333334v21.333333h-21.333334zM509.866667 189.866667h21.333333v147.2h-21.333333zM509.866667 708.266667h21.333333v147.2h-21.333333zM225.92 672.170667l127.488-73.6 10.666667 18.474666-127.488 73.6zM223.509333 375.125333l10.666667-18.474666 127.466667 73.6-10.666667 18.474666zM677.312 422.186667l132.309333-64.554667 9.344 19.2-132.309333 64.512zM684.544 618.517333l10.986667-18.282666 126.186666 75.797333-10.986666 18.304z" fill="" p-id="7926"></path><path d="M520.533333 590.933333c-93.866667 0-189.866667-23.466667-189.866666-66.133333s96-66.133333 189.866666-66.133333 189.866667 23.466667 189.866667 66.133333-93.866667 66.133333-189.866667 66.133333z m0-110.933333c-102.4 0-168.533333 27.733333-168.533333 44.8s66.133333 44.8 168.533333 44.8c102.4 0 168.533333-27.733333 168.533334-44.8s-64-44.8-168.533334-44.8z" fill="" p-id="7927"></path><path d="M520.533333 714.666667c-36.266667 0-57.6-68.266667-64-130.133334l21.333334-2.133333c8.533333 76.8 29.866667 110.933333 42.666666 110.933333 12.8 0 34.133333-34.133333 42.666667-113.066666l21.333333 2.133333c-6.4 64-25.6 132.266667-64 132.266667z m44.8-243.2c-8.533333-78.933333-29.866667-115.2-42.666666-115.2-12.8 0-34.133333 36.266667-42.666667 113.066666l-21.333333-2.133333c6.4-64 27.733333-132.266667 64-132.266667 38.4 0 57.6 70.4 64 134.4l-21.333334 2.133334zM520.533333 209.066667c-36.266667 0-66.133333-29.866667-66.133333-66.133334 0-36.266667 29.866667-66.133333 66.133333-66.133333 36.266667 0 66.133333 29.866667 66.133334 66.133333 2.133333 36.266667-27.733333 66.133333-66.133334 66.133334z m0-113.066667c-25.6 0-44.8 21.333333-44.8 44.8 0 25.6 21.333333 44.8 44.8 44.8 25.6 0 44.8-21.333333 44.8-44.8 2.133333-23.466667-19.2-44.8-44.8-44.8zM857.6 407.466667c-36.266667 0-66.133333-29.866667-66.133333-66.133334 0-36.266667 29.866667-66.133333 66.133333-66.133333s66.133333 29.866667 66.133333 66.133333c2.133333 36.266667-27.733333 66.133333-66.133333 66.133334z m0-113.066667c-25.6 0-44.8 21.333333-44.8 44.8 0 25.6 21.333333 44.8 44.8 44.8s44.8-21.333333 44.8-44.8c2.133333-23.466667-19.2-44.8-44.8-44.8zM857.6 776.533333c-36.266667 0-66.133333-29.866667-66.133333-66.133333 0-36.266667 29.866667-66.133333 66.133333-66.133333s66.133333 29.866667 66.133333 66.133333c2.133333 34.133333-27.733333 66.133333-66.133333 66.133333z m0-113.066666c-25.6 0-44.8 21.333333-44.8 44.8s21.333333 44.8 44.8 44.8 44.8-21.333333 44.8-44.8-19.2-44.8-44.8-44.8zM520.533333 974.933333c-36.266667 0-66.133333-29.866667-66.133333-66.133333 0-36.266667 29.866667-66.133333 66.133333-66.133333 36.266667 0 66.133333 29.866667 66.133334 66.133333 2.133333 36.266667-27.733333 66.133333-66.133334 66.133333z m0-113.066666c-25.6 0-44.8 21.333333-44.8 44.8s21.333333 44.8 44.8 44.8c25.6 0 44.8-21.333333 44.8-44.8s-19.2-44.8-44.8-44.8zM183.466667 407.466667c-36.266667 0-66.133333-29.866667-66.133334-66.133334 0-36.266667 29.866667-66.133333 66.133334-66.133333 36.266667 0 66.133333 29.866667 66.133333 66.133333 2.133333 36.266667-27.733333 66.133333-66.133333 66.133334z m0-113.066667c-25.6 0-44.8 21.333333-44.8 44.8 0 25.6 21.333333 44.8 44.8 44.8 25.6 0 44.8-21.333333 44.8-44.8 2.133333-23.466667-19.2-44.8-44.8-44.8zM183.466667 776.533333c-36.266667 0-66.133333-29.866667-66.133334-66.133333 0-36.266667 29.866667-66.133333 66.133334-66.133333 36.266667 0 66.133333 29.866667 66.133333 66.133333 2.133333 34.133333-27.733333 66.133333-66.133333 66.133333z m0-113.066666c-25.6 0-44.8 21.333333-44.8 44.8s21.333333 44.8 44.8 44.8c25.6 0 44.8-21.333333 44.8-44.8s-19.2-44.8-44.8-44.8z" fill="" p-id="7928"></path><path d="M514.133333 731.733333c-117.333333 0-215.466667-96-215.466666-215.466666 0-117.333333 96-215.466667 215.466666-215.466667 117.333333 0 215.466667 96 215.466667 215.466667s-96 215.466667-215.466667 215.466666z m0-386.133333c-93.866667 0-172.8 76.8-172.8 172.8s76.8 172.8 172.8 172.8c93.866667 0 172.8-76.8 172.8-172.8s-76.8-172.8-172.8-172.8z" fill="" p-id="7929"></path></svg>