<?xml version="1.0" standalone="no"?><!DOCTYPE svg PUBLIC "-//W3C//DTD SVG 1.1//EN" "http://www.w3.org/Graphics/SVG/1.1/DTD/svg11.dtd"><svg t="1710691093044" class="icon" viewBox="0 0 1024 1024" version="1.1" xmlns="http://www.w3.org/2000/svg" p-id="4262" xmlns:xlink="http://www.w3.org/1999/xlink" width="200" height="200"><path d="M901.4 585.3c-30 185.9-191.2 328-386.3 328-166.7 0-308.5-103.7-365.2-249.7h33.6C238.3 792 366 882.1 515 882.1c180.5 0 329.5-132.2 355.9-304.6-15.9-9.6-26.6-26.8-26.6-46.6 0-30.2 24.6-54.6 54.9-54.6 30.3 0 54.9 24.4 54.9 54.6 0 29.4-23.5 53.2-52.7 54.4z m-2.2-77.8c-13 0-23.5 10.5-23.5 23.4 0 12.9 10.5 23.4 23.5 23.4s23.5-10.5 23.5-23.4c0-13-10.5-23.4-23.5-23.4zM659.4 335.4l27.4-15.4 6.4 103 88.6 56.9-27.4 15.4-88.6-56.9-6.4-103z m25.9 393.7l-27.2-15.6 6.3-104.5 87.8-57.7 27.2 15.6-87.8 57.7-6.3 104.5zM421 304.5v-31.2l94.1 46.8 94.1-46.8v31.2L515 351.4l-94-46.9z m188.1 437.1v31.2L515 726l-94 46.8v-31.2l94.1-46.8 94 46.8zM515 398.2c69.3 0 125.4 55.9 125.4 124.9S584.2 648 515 648s-125.4-56-125.4-124.9c0-69 56.2-124.9 125.4-124.9z m0 218.5c52 0 94.1-41.9 94.1-93.7 0-51.7-42.1-93.7-94.1-93.7s-94 42-94 93.8c0 51.7 42.1 93.6 94 93.6z m62.8-93.6c0 34.5-28.1 62.4-62.7 62.4v-15.6c26 0 47-21 47-46.8 0-25.9-21.1-46.8-47-46.8v-15.6c34.6-0.1 62.7 27.9 62.7 62.4z m-327.1-43.8l87.8-57.7 6.3-104.5 27.2 15.6-6.3 104.5-87.8 57.7-27.2-15.6z m86.2 143.8l-88.6-56.9 27.4-15.4 88.6 56.9 6.4 103-27.4 15.4-6.4-103zM515 164c-185.6 0-337.9 139.7-357.9 319.1 17 9.3 28.6 27 28.6 47.7 0 30.2-24.6 54.6-54.9 54.6-30.3 0-54.9-24.5-54.9-54.6 0-28.7 22.3-52 50.6-54.2C149.7 283.1 314.4 132.8 515 132.8c172.5 0 318.4 111.2 370.7 265.4h-32.9C801.9 261.5 670.1 164 515 164zM130.9 507.5c-13 0-23.5 10.5-23.5 23.4 0 12.9 10.5 23.4 23.5 23.4s23.5-10.5 23.5-23.4c0-13-10.5-23.4-23.5-23.4z" fill="" p-id="4263"></path></svg>