<?xml version="1.0" standalone="no"?><!DOCTYPE svg PUBLIC "-//W3C//DTD SVG 1.1//EN" "http://www.w3.org/Graphics/SVG/1.1/DTD/svg11.dtd"><svg t="1712135266602" class="icon" viewBox="0 0 1088 1024" version="1.1" xmlns="http://www.w3.org/2000/svg" p-id="3913" xmlns:xlink="http://www.w3.org/1999/xlink" width="212.5" height="200"><path d="M540.352 32c113.408 0 219.648 45.76 296.832 125.184l-45.888 44.608A348.672 348.672 0 0 0 540.352 96a348.672 348.672 0 0 0-246.848 101.632l-45.12-45.376A412.672 412.672 0 0 1 540.352 32zM128 439.68l64 0.384v1.216a345.28 345.28 0 0 0 211.84 317.76l-24.896 58.944a409.408 409.408 0 0 1-250.624-360.192L128 439.68zM952.704 441.28a409.6 409.6 0 0 1-250.176 376.384l-25.024-58.88a345.6 345.6 0 0 0 211.2-317.504h64z" p-id="3914"></path><path d="M879.488 129.92a175.936 175.936 0 0 0-176.512 175.296 175.936 175.936 0 0 0 176.512 175.36 175.936 175.936 0 0 0 176.512-175.36 175.936 175.936 0 0 0-176.512-175.36z m0 64c62.208 0 112.512 49.856 112.512 111.296 0 61.44-50.304 111.36-112.512 111.36s-112.512-49.92-112.512-111.36 50.304-111.36 112.512-111.36zM208.512 129.92A175.936 175.936 0 0 0 32 305.152a175.936 175.936 0 0 0 176.512 175.36 175.936 175.936 0 0 0 176.512-175.36 175.936 175.936 0 0 0-176.512-175.36z m0 64c62.208 0 112.512 49.856 112.512 111.296 0 61.44-50.304 111.36-112.512 111.36S96 366.592 96 305.152s50.304-111.36 112.512-111.36zM540.352 634.368a184.768 184.768 0 0 0-185.408 184.128 184.768 184.768 0 0 0 185.408 184.192 184.768 184.768 0 0 0 185.408-184.192 184.768 184.768 0 0 0-185.408-184.128z m0 64c67.072 0 121.408 53.824 121.408 120.128a120.768 120.768 0 0 1-121.408 120.192 120.768 120.768 0 0 1-121.408-120.192c0-66.304 54.272-120.128 121.408-120.128z" p-id="3915"></path></svg>