<?xml version="1.0" standalone="no"?><!DOCTYPE svg PUBLIC "-//W3C//DTD SVG 1.1//EN" "http://www.w3.org/Graphics/SVG/1.1/DTD/svg11.dtd"><svg t="1715143819549" class="icon" viewBox="0 0 1024 1024" version="1.1" xmlns="http://www.w3.org/2000/svg" p-id="4160" xmlns:xlink="http://www.w3.org/1999/xlink" width="200" height="200"><path d="M636.3136 633.856l-99.5328-99.1232 99.1232-99.5328-22.016-21.9136-99.1232 99.5328-99.5328-99.1232-22.016 22.016 99.6352 99.1232-99.1232 99.5328 22.016 21.9136 99.1232-99.5328L614.4 655.872l21.9136-22.016z" p-id="4161"></path><path d="M876.3392 873.8816l-103.0144-102.4c2.2528-2.4576 4.3008-5.0176 6.4512-7.4752a58.2656 58.2656 0 0 0 60.5184-99.0208A358.4 358.4 0 0 0 778.24 293.6832l98.0992-98.5088-22.1184-21.9136-97.4848 97.8944a358.4 358.4 0 0 0-191.8976-96.1536 58.2656 58.2656 0 0 0-114.4832 0 359.6288 359.6288 0 0 0-184.32 88.7808L175.2064 174.08 153.6 195.6864l90.112 90.0096a358.4 358.4 0 0 0-68.1984 382.8736 58.1632 58.1632 0 0 0 39.5264 101.376 58.9824 58.9824 0 0 0 21.7088-4.1984c3.9936 4.608 8.0896 9.1136 12.288 13.4144L153.6 874.3936l22.016 21.9136 95.3344-95.6416a358.4 358.4 0 0 0 480.3584-7.2704l103.0144 102.4z m-368.64-15.5648A326.8608 326.8608 0 0 1 292.9664 778.24l103.0144-103.424-22.1184-21.9136-103.424 104.2432c-3.2768-3.3792-6.4512-6.7584-9.5232-10.24A58.2656 58.2656 0 0 0 215.04 653.4144a57.344 57.344 0 0 0-11.1616 1.1264A327.68 327.68 0 0 1 266.24 307.2l108.2368 108.7488 21.9136-22.016L287.744 285.7984a327.68 327.68 0 0 1 164.864-79.6672 58.1632 58.1632 0 0 0 109.1584 0 326.9632 326.9632 0 0 1 172.6464 87.04l-100.7616 101.2736L655.36 416.3584l100.1472-100.5568a327.68 327.68 0 0 1 55.5008 337.92 51.9168 51.9168 0 0 0-5.632 0A58.2656 58.2656 0 0 0 747.52 711.68a57.5488 57.5488 0 0 0 9.216 31.4368c-1.7408 2.1504-3.4816 4.1984-5.3248 6.2464L655.36 653.6192 633.2416 675.84l96.1536 95.8464a327.68 327.68 0 0 1-222.208 86.6304z" p-id="4162"></path></svg>