<?xml version="1.0" standalone="no"?><!DOCTYPE svg PUBLIC "-//W3C//DTD SVG 1.1//EN" "http://www.w3.org/Graphics/SVG/1.1/DTD/svg11.dtd"><svg t="1715143634892" class="icon" viewBox="0 0 1024 1024" version="1.1" xmlns="http://www.w3.org/2000/svg" p-id="2592" xmlns:xlink="http://www.w3.org/1999/xlink" width="200" height="200"><path d="M-0.042667 512.042667a42.666667 42.666667 0 0 1 42.666667-42.666667h480a42.666667 42.666667 0 1 1 0 85.333333H42.624a42.666667 42.666667 0 0 1-42.666667-42.666666z" p-id="2593"></path><path d="M512 0a42.666667 42.666667 0 0 1 31.488 13.909333 760.746667 760.746667 0 0 1 193.621333 422.144 42.666667 42.666667 0 1 1-84.736 10.24A675.498667 675.498667 0 0 0 512 108.501333 675.456 675.456 0 0 0 366.933333 512a675.456 675.456 0 0 0 145.066667 403.456c2.901333-3.669333 5.76-7.381333 8.576-11.093333a42.666667 42.666667 0 0 1 68.096 51.456c-14.165333 18.730667-29.226667 36.821333-45.184 54.314666a42.666667 42.666667 0 0 1-62.976 0A760.746667 760.746667 0 0 1 281.6 511.146667 760.746667 760.746667 0 0 1 480.512 13.909333 42.666667 42.666667 0 0 1 512 0z" p-id="2594"></path><path d="M767.957333 597.333333a128 128 0 1 0 0 256 128 128 0 0 0 0-256z m-213.333333 128a213.333333 213.333333 0 1 1 426.666667 0 213.333333 213.333333 0 0 1-426.666667 0z" p-id="2595"></path><path d="M853.802667 822.442667a42.666667 42.666667 0 0 1 60.288-2.773334l95.957333 87.466667a42.666667 42.666667 0 1 1-57.514667 63.061333l-95.957333-87.466666a42.666667 42.666667 0 0 1-2.773333-60.288z" p-id="2596"></path><path d="M512 85.333333C276.309333 85.333333 85.290667 276.352 85.290667 512c0 235.690667 191.018667 426.709333 426.666666 426.709333a42.666667 42.666667 0 0 1 0 85.333334c-282.752 0-512-229.205333-512-512S229.205333 0 511.957333 0C794.837333 0 1024 229.248 1024 512a42.666667 42.666667 0 1 1-85.333333 0c0-235.648-191.018667-426.666667-426.666667-426.666667z" p-id="2597"></path></svg>