<?xml version="1.0" standalone="no"?><!DOCTYPE svg PUBLIC "-//W3C//DTD SVG 1.1//EN" "http://www.w3.org/Graphics/SVG/1.1/DTD/svg11.dtd"><svg t="1715144229237" class="icon" viewBox="0 0 1024 1024" version="1.1" xmlns="http://www.w3.org/2000/svg" p-id="10377" xmlns:xlink="http://www.w3.org/1999/xlink" width="200" height="200"><path d="M512 174.08a337.92 337.92 0 1 0 337.92 337.92 337.92 337.92 0 0 0-337.92-337.92z m0 648.192A310.4768 310.4768 0 1 1 822.4768 512 310.784 310.784 0 0 1 512 822.4768z" p-id="10378"></path><path d="M640.4096 554.0864v-28.4672H496.8448v160.5632h-27.136V525.6192h-90.624v67.7888h25.2928l-37.6832 96.6656-40.0384-96.6656h25.2928V337.8176h27.136v160.5632h90.624V443.392h-28.8768l41.0624-105.5744 43.8272 105.5744h-28.8768v54.9888h143.5648v-28.4672l104.6528 40.7552-104.6528 43.4176z" p-id="10379"></path></svg>