<?xml version="1.0" standalone="no"?><!DOCTYPE svg PUBLIC "-//W3C//DTD SVG 1.1//EN" "http://www.w3.org/Graphics/SVG/1.1/DTD/svg11.dtd"><svg class="icon" width="200px" height="200.00px" viewBox="0 0 1024 1024" version="1.1" xmlns="http://www.w3.org/2000/svg"><path d="M514.520615 1.929846a60.770462 60.770462 0 0 1 20.086154 118.153846l-0.393846 343.827693 197.592615-112.482462v-76.012308a60.809846 60.809846 0 1 1 39.384616 0.393847v98.579692l-237.016616 134.852923-0.275692 298.771692 238.670769-122.171077-0.866461-52.499692a60.809846 60.809846 0 1 1 39.424 0.157538l1.260308 76.248616-278.528 142.532923-0.07877 136.231385-39.384615-0.039385 0.315077-381.479385-276.322462-154.269538 0.157539-177.782154a59.076923 59.076923 0 1 1 38.4-0.157538l0.984615 155.293538 236.819692 128.078769 0.393847-437.838769a60.849231 60.849231 0 0 1-41.156923-52.105846l-0.236308-5.513846c0-33.555692 27.175385-60.770462 60.770461-60.770462zM201.294769 633.974154a59.076923 59.076923 0 0 1 58.998154 62.385231l156.553846 83.495384-0.157538 207.872-39.384616-0.118154 0.039385-184.24123-132.332308-70.498462a59.076923 59.076923 0 1 1-43.716923-98.855385z" fill="#2A2E3F" /></svg>