<?xml version="1.0" standalone="no"?><!DOCTYPE svg PUBLIC "-//W3C//DTD SVG 1.1//EN" "http://www.w3.org/Graphics/SVG/1.1/DTD/svg11.dtd"><svg t="1715166038345" class="icon" viewBox="0 0 1024 1024" version="1.1" xmlns="http://www.w3.org/2000/svg" p-id="11486" xmlns:xlink="http://www.w3.org/1999/xlink" width="200" height="200"><path d="M859.136 719.872h-696.32c-22.016 0-39.936-17.92-39.936-39.936v-491.52c0-22.016 17.92-39.936 39.936-39.936h696.32c22.016 0 39.936 17.92 39.936 39.936v491.52c0 22.016-17.92 39.936-39.936 39.936zM182.272 660.992h657.92V207.872H182.272v453.12z" fill="" p-id="11487"></path><path d="M754.176 610.304h-491.52c-5.632 0-10.24-4.608-10.24-10.24v-337.92c0-5.632 4.608-10.24 10.24-10.24h491.52c5.632 0 10.24 4.608 10.24 10.24v337.92c0 5.632-4.608 10.24-10.24 10.24zM888.832 866.816H133.632c-5.632 0-10.24-4.608-10.24-10.24v-38.4c0-5.632 4.608-10.24 10.24-10.24h755.2c5.632 0 10.24 4.608 10.24 10.24v38.4c0 5.632-4.608 10.24-10.24 10.24z" fill="" p-id="11488"></path><path d="M480.256 699.904h58.88v118.272H480.256z" fill="" p-id="11489"></path></svg>