<?xml version="1.0" standalone="no"?><!DOCTYPE svg PUBLIC "-//W3C//DTD SVG 1.1//EN" "http://www.w3.org/Graphics/SVG/1.1/DTD/svg11.dtd"><svg t="1715084468598" class="icon" viewBox="0 0 1024 1024" version="1.1" xmlns="http://www.w3.org/2000/svg" p-id="3582" xmlns:xlink="http://www.w3.org/1999/xlink" width="200" height="200"><path d="M93.866667 513.706667a418.133333 418.133333 0 1 0 836.266666 0 418.133333 418.133333 0 1 0-836.266666 0Z" fill="#FFFFFF" p-id="3583"></path><path d="M512 81.92C273.066667 81.92 80.213333 274.773333 80.213333 513.706667S273.066667 947.2 512 947.2s431.786667-194.56 431.786667-433.493333S750.933333 81.92 512 81.92z m0 851.626667c-230.4 0-418.133333-187.733333-418.133333-418.133334s187.733333-418.133333 418.133333-418.133333 418.133333 187.733333 418.133333 418.133333-187.733333 418.133333-418.133333 418.133334z" fill="#D5271C" p-id="3584"></path><path d="M785.066667 293.546667c-1.706667-3.413333-3.413333-3.413333-5.12-1.706667-6.826667 5.12-13.653333 10.24-18.773334 13.653333l-1.706666 1.706667c-3.413333 3.413333-3.413333 5.12-1.706667 10.24 0 1.706667 1.706667 1.706667 0 5.12 0 0-1.706667 0-1.706667-1.706667-3.413333-3.413333-6.826667-6.826667-8.533333-10.24-5.12-6.826667-10.24-13.653333-13.653333-17.066666 0-1.706667-1.706667-1.706667 0-3.413334 1.706667 0 3.413333 1.706667 5.12 3.413334s3.413333 1.706667 5.12 0 3.413333-1.706667 6.826666-3.413334c8.533333-6.826667 13.653333-11.946667 22.186667-17.066666 6.826667-6.826667 13.653333-11.946667 20.48-17.066667 1.706667-1.706667 3.413333-1.706667 5.12-3.413333 3.413333-3.413333 3.413333-6.826667 1.706667-10.24 0-1.706667-1.706667-1.706667-1.706667-3.413334 0 0 1.706667-1.706667 1.706667 0l1.706666 1.706667c8.533333 10.24 15.36 18.773333 22.186667 27.306667 3.413333 3.413333 5.12 6.826667 6.826667 10.24 3.413333 5.12 5.12 8.533333 5.12 11.946666 3.413333 13.653333-11.946667 23.893333-20.48 22.186667-3.413333 0-6.826667-1.706667-10.24-3.413333-1.706667 0-3.413333-1.706667-5.12-1.706667 0 1.706667-1.706667 1.706667-1.706667 3.413333-3.413333 10.24-5.12 17.066667-8.533333 27.306667 0 1.706667-1.706667 5.12-1.706667 6.826667-1.706667 3.413333-1.706667 6.826667-1.706667 11.946666v1.706667H785.066667c-5.12-5.12-10.24-11.946667-11.946667-15.36-1.706667-1.706667-1.706667-3.413333 0-5.12 3.413333-10.24 6.826667-18.773333 10.24-29.013333 0-6.826667 1.706667-11.946667 1.706667-15.36z m40.96-11.946667c0-6.826667-3.413333-11.946667-6.826667-13.653333-1.706667-1.706667-3.413333-1.706667-5.12 0-3.413333 3.413333-6.826667 5.12-10.24 8.533333-5.12 3.413333-10.24 6.826667-13.653333 11.946667-1.706667 1.706667-1.706667 3.413333 0 5.12 3.413333 3.413333 5.12 5.12 8.533333 6.826666 3.413333 3.413333 8.533333 3.413333 11.946667 1.706667 6.826667-3.413333 11.946667-6.826667 13.653333-11.946667 0-5.12 0-6.826667 1.706667-8.533333z" fill="#DA251B" p-id="3585"></path><path d="M196.266667 469.333333v-3.413333c0-5.12-1.706667-8.533333-6.826667-8.533333-13.653333-5.12-29.013333-8.533333-42.666667-11.946667-5.12-1.706667-10.24-3.413333-13.653333-5.12h-1.706667c-3.413333 0-5.12 0-8.533333 3.413333 0 0 0 1.706667-1.706667 1.706667-1.706667 1.706667-1.706667 3.413333-3.413333 3.413333-1.706667-1.706667 0-3.413333 0-3.413333 3.413333-11.946667 6.826667-20.48 10.24-32.426667 1.706667-6.826667 5.12-11.946667 6.826667-15.36 5.12-8.533333 11.946667-13.653333 20.48-15.36 6.826667-1.706667 13.653333-3.413333 18.773333-1.706666 8.533333 1.706667 13.653333 5.12 22.186667 10.24 8.533333 6.826667 13.653333 13.653333 13.653333 25.6 1.706667 6.826667 0 13.653333-1.706667 20.48l-10.24 35.84s0 1.706667-1.706666 1.706666c1.706667-5.12 1.706667-5.12 0-5.12z m-37.546667-73.386666c-3.413333 0-8.533333 0-11.946667 1.706666-8.533333 1.706667-13.653333 6.826667-13.653333 13.653334-1.706667 6.826667 0 8.533333 5.12 10.24 6.826667 3.413333 15.36 5.12 25.6 6.826666 11.946667 3.413333 22.186667 6.826667 34.133333 10.24h3.413334c3.413333 0 5.12 0 6.826666-3.413333 3.413333-6.826667 3.413333-17.066667-5.12-23.893333-3.413333-3.413333-6.826667-5.12-10.24-6.826667-11.946667-5.12-23.893333-8.533333-34.133333-8.533333z" fill="#D5271C" p-id="3586"></path><path d="M774.826667 215.04c-5.12 6.826667-10.24 13.653333-11.946667 18.773333-1.706667-1.706667-3.413333-1.706667-1.706667-3.413333 0-1.706667 1.706667-3.413333 1.706667-5.12 1.706667-6.826667 1.706667-13.653333-3.413333-18.773333-3.413333-3.413333-8.533333-6.826667-11.946667-10.24-1.706667 0-1.706667-1.706667-3.413333-1.706667s-3.413333 0-5.12 1.706667c-1.706667 3.413333-5.12 6.826667-6.826667 10.24-3.413333 5.12-6.826667 10.24-10.24 13.653333 1.706667 3.413333 5.12 3.413333 6.826667 5.12 5.12 1.706667 10.24 1.706667 13.653333-1.706667l5.12-5.12s1.706667 0 3.413333-1.706666c0 1.706667 0 1.706667-1.706666 3.413333-6.826667 10.24-13.653333 18.773333-20.48 30.72h-1.706667v-1.706667-3.413333c0-1.706667 1.706667-3.413333 1.706667-5.12 1.706667-6.826667 0-11.946667-5.12-15.36-1.706667-1.706667-3.413333-1.706667-5.12-3.413333-1.706667 0-1.706667 1.706667-1.706667 1.706666-5.12 8.533333-10.24 13.653333-15.36 22.186667-3.413333 3.413333-3.413333 6.826667 1.706667 10.24 10.24 8.533333 20.48 13.653333 35.84 8.533333 3.413333-1.706667 5.12-1.706667 8.533333-3.413333h3.413333c-1.706667 3.413333-11.946667 11.946667-17.066666 17.066667 0 0-1.706667 0-1.706667-1.706667-17.066667-13.653333-35.84-23.893333-52.906667-37.546667-1.706667 0-1.706667-1.706667-3.413333-1.706666v-1.706667h3.413333c3.413333 3.413333 3.413333 3.413333 8.533334-1.706667 11.946667-15.36 22.186667-32.426667 34.133333-47.786666 3.413333-3.413333 3.413333-6.826667 0-10.24l-3.413333-3.413334V170.666667h1.706666c1.706667 0 1.706667 1.706667 3.413334 1.706666 10.24 6.826667 18.773333 13.653333 29.013333 20.48 8.533333 5.12 15.36 11.946667 22.186667 15.36-1.706667 5.12-1.706667 6.826667 0 6.826667zM279.893333 191.146667c1.706667 1.706667 1.706667 1.706667 0 0v3.413333c-3.413333 5.12-3.413333 8.533333 1.706667 13.653333 13.653333 15.36 29.013333 32.426667 42.666667 49.493334 1.706667 1.706667 1.706667 3.413333 3.413333 5.12 0 1.706667-1.706667 3.413333-3.413333 1.706666-5.12 0-8.533333-1.706667-11.946667-1.706666l-25.6-5.12c-5.12 0-10.24-1.706667-13.653333-1.706667-10.24-1.706667-18.773333-3.413333-29.013334-5.12h-3.413333c0 1.706667 1.706667 1.706667 1.706667 1.706667 10.24 11.946667 20.48 23.893333 32.426666 35.84 0 1.706667 1.706667 1.706667 1.706667 1.706666 3.413333 3.413333 6.826667 3.413333 11.946667 1.706667 1.706667 0 1.706667-1.706667 3.413333-1.706667v1.706667c0 1.706667-1.706667 1.706667-3.413333 3.413333-5.12 5.12-10.24 10.24-15.36 11.946667-1.706667 0-1.706667 1.706667-3.413334 0 0-1.706667 1.706667-3.413333 1.706667-3.413333 3.413333-5.12 1.706667-8.533333 0-11.946667-3.413333-3.413333-5.12-6.826667-8.533333-8.533333-10.24-11.946667-18.773333-22.186667-29.013334-34.133334-1.706667-1.706667-5.12-3.413333-8.533333-3.413333h-8.533333s-1.706667 0-3.413334-1.706667c0-1.706667 1.706667-1.706667 1.706667-1.706666 5.12-5.12 10.24-8.533333 13.653333-13.653334 1.706667-1.706667 5.12-3.413333 6.826667-1.706666 11.946667 1.706667 20.48 3.413333 32.426667 5.12 10.24 1.706667 18.773333 3.413333 29.013333 5.12h3.413333c0-1.706667 0-1.706667-1.706666-1.706667-8.533333-10.24-15.36-17.066667-23.893334-27.306667-3.413333-5.12-8.533333-5.12-13.653333-1.706666h-3.413333V204.8c10.24-1.706667 13.653333-6.826667 22.186666-13.653333 0 1.706667 0 1.706667 0 0zM527.36 199.68h-3.413333c-1.706667 0-1.706667-1.706667-3.413334-3.413333-17.066667-17.066667-35.84-37.546667-52.906666-54.613334l-3.413334-3.413333c-1.706667 0-1.706667 1.706667-1.706666 1.706667 1.706667 15.36 1.706667 30.72 3.413333 46.08v1.706666c0 5.12 3.413333 8.533333 8.533333 8.533334 1.706667 0 3.413333-1.706667 3.413334 1.706666 0 1.706667-1.706667 1.706667-3.413334 1.706667-6.826667 0-11.946667 1.706667-18.773333 1.706667h-3.413333v-1.706667s1.706667-1.706667 3.413333-1.706667 3.413333-1.706667 5.12-1.706666c1.706667-1.706667 3.413333-1.706667 3.413333-5.12V187.733333c0-5.12 0-10.24-1.706666-13.653333-1.706667-13.653333-1.706667-27.306667-3.413334-39.253333 0-3.413333-1.706667-5.12-3.413333-8.533334-1.706667-1.706667-5.12-3.413333-6.826667-5.12l-1.706666-1.706666c0-1.706667 1.706667-1.706667 3.413333-1.706667h13.653333c3.413333 0 6.826667 0 10.24-1.706667l23.893334 23.893334c8.533333 8.533333 13.653333 15.36 22.186666 23.893333 1.706667 0 1.706667-1.706667 1.706667-1.706667v-13.653333c0-6.826667-1.706667-13.653333-1.706667-20.48v-3.413333c-1.706667-5.12-3.413333-6.826667-8.533333-8.533334-1.706667 0-3.413333 0-3.413333-1.706666v-1.706667-1.706667c8.533333-1.706667 15.36-1.706667 23.893333-1.706666 0 1.706667 0 1.706667-1.706667 1.706666H529.066667c-3.413333 1.706667-5.12 5.12-5.12 8.533334 0 5.12 0 10.24 1.706666 15.36 0 11.946667 1.706667 20.48 1.706667 32.426666 0 8.533333 1.706667 15.36 1.706667 22.186667-1.706667 8.533333-1.706667 8.533333-1.706667 10.24zM397.653333 873.813333c3.413333 0 6.826667 0 10.24 1.706667v5.12c6.826667 44.373333 39.253333-10.24 40.96-13.653333v-1.706667c-1.706667-1.706667-1.706667 0-3.413333 0-13.653333 8.533333-27.306667 5.12-37.546667-10.24-3.413333-6.826667-5.12-13.653333-1.706666-20.48 1.706667-3.413333 1.706667-6.826667 3.413333-10.24 3.413333-8.533333 11.946667-13.653333 20.48-15.36 11.946667-3.413333 22.186667 1.706667 30.72 11.946667 6.826667 11.946667 8.533333 23.893333 5.12 37.546666-3.413333 11.946667-6.826667 22.186667-11.946667 32.426667-5.12 6.826667-11.946667 11.946667-17.066666 11.946667-20.48 1.706667-32.426667-5.12-35.84-23.893334-3.413333-1.706667-3.413333-3.413333-3.413334-5.12 3.413333 0 0 1.706667 0 0z m58.026667-37.546666v-3.413334c-1.706667-6.826667-5.12-13.653333-11.946667-13.653333-6.826667-3.413333-13.653333-1.706667-17.066666 3.413333-5.12 3.413333-8.533333 8.533333-10.24 13.653334-1.706667 8.533333 0 13.653333 5.12 18.773333 8.533333 6.826667 20.48 8.533333 29.013333-3.413333 3.413333-3.413333 5.12-8.533333 5.12-15.36zM139.946667 650.24c-1.706667-1.706667-3.413333-3.413333-3.413334-5.12-5.12-15.36-8.533333-32.426667-13.653333-47.786667-1.706667-3.413333-1.706667-8.533333-3.413333-11.946666 1.706667 0 1.706667-1.706667 3.413333-1.706667 6.826667-1.706667 13.653333-3.413333 18.773333-5.12h1.706667s0 1.706667-1.706667 1.706667c-1.706667 1.706667-3.413333 1.706667-5.12 3.413333-3.413333 1.706667-5.12 5.12-6.826666 6.826667-1.706667 1.706667-1.706667 5.12-1.706667 6.826666 0 6.826667 1.706667 13.653333 3.413333 18.773334 1.706667 3.413333 3.413333 5.12 6.826667 3.413333 10.24-1.706667 17.066667-5.12 27.306667-8.533333 0 0 1.706667 0 1.706666-1.706667 0-3.413333-1.706667-6.826667-3.413333-8.533333 0-1.706667-3.413333-3.413333-6.826667-3.413334h-6.826666c-1.706667 0-1.706667 0-1.706667-1.706666 1.706667-1.706667 5.12-1.706667 6.826667-1.706667 10.24-3.413333 18.773333-5.12 27.306666-8.533333h6.826667v1.706666c-1.706667 0-1.706667 1.706667-3.413333 1.706667-1.706667 1.706667-3.413333 1.706667-5.12 3.413333-5.12 5.12-6.826667 10.24-5.12 15.36 0 1.706667 1.706667 1.706667 3.413333 1.706667 6.826667-1.706667 13.653333-3.413333 18.773333-5.12 1.706667 0 5.12-1.706667 6.826667-1.706667 5.12-1.706667 6.826667-5.12 6.826667-10.24v-5.12s0-1.706667 1.706666-1.706666c0 0 1.706667 0 1.706667 1.706666 3.413333 11.946667 8.533333 27.306667 11.946667 39.253334v1.706666s-1.706667 0-1.706667-1.706666c-3.413333 1.706667-3.413333 0-3.413333 0-1.706667-3.413333-5.12-5.12-8.533334-3.413334-1.706667 0-3.413333 0-5.12 1.706667-15.36 5.12-34.133333 10.24-49.493333 13.653333-1.706667 0-5.12 1.706667-6.826667 1.706667-5.12 1.706667-6.826667 3.413333-6.826666 10.24-5.12-1.706667-5.12-1.706667-5.12 0zM552.96 849.92c0-5.12 0-10.24 1.706667-15.36 3.413333-8.533333 8.533333-13.653333 15.36-15.36 5.12-1.706667 10.24-1.706667 13.653333-1.706667 17.066667 5.12 27.306667 17.066667 29.013333 35.84 1.706667 5.12 1.706667 11.946667 3.413334 17.066667 1.706667 8.533333 1.706667 17.066667-1.706667 25.6-3.413333 10.24-11.946667 15.36-20.48 17.066667-5.12 1.706667-10.24 1.706667-13.653333-1.706667-11.946667-5.12-18.773333-13.653333-20.48-25.6-3.413333-11.946667-6.826667-27.306667-6.826667-35.84z m11.946667 0c0 3.413333 0 6.826667 1.706666 10.24 1.706667 10.24 3.413333 18.773333 6.826667 27.306667 1.706667 5.12 3.413333 8.533333 8.533333 11.946666 17.066667 17.066667 29.013333-11.946667 25.6-23.893333 0-5.12-1.706667-11.946667-1.706666-15.36-1.706667-8.533333-3.413333-13.653333-6.826667-22.186667-1.706667-3.413333-5.12-6.826667-8.533333-10.24-6.826667-5.12-17.066667-3.413333-22.186667 6.826667-1.706667 3.413333-3.413333 8.533333-3.413333 15.36zM701.44 819.2c-1.706667 1.706667-5.12 3.413333-8.533333 5.12-3.413333-3.413333-20.48-35.84-23.893334-40.96 3.413333-3.413333 20.48-17.066667 35.84-29.013333 3.413333 1.706667 5.12 3.413333 6.826667 8.533333-10.24 6.826667-18.773333 15.36-29.013333 22.186667 1.706667 5.12 10.24 18.773333 11.946666 22.186666 0-1.706667 1.706667-1.706667 1.706667-3.413333 3.413333-6.826667 6.826667-11.946667 13.653333-13.653333 11.946667-6.826667 25.6-5.12 34.133334 5.12 1.706667 3.413333 5.12 5.12 6.826666 8.533333 6.826667 10.24 6.826667 20.48 1.706667 30.72-3.413333 8.533333-11.946667 13.653333-18.773333 15.36-10.24 3.413333-18.773333 1.706667-27.306667-5.12l-1.706667-1.706667v-1.706666c1.706667-3.413333 5.12-5.12 8.533334-8.533334 1.706667 0 1.706667 1.706667 3.413333 1.706667 11.946667 6.826667 22.186667 3.413333 29.013333-13.653333 1.706667-8.533333-1.706667-13.653333-6.826666-20.48l-5.12-5.12c-15.36-6.826667-25.6-1.706667-32.426667 13.653333-3.413333 3.413333-1.706667 6.826667 0 10.24-1.706667 1.706667 0-1.706667 0 0zM116.053333 518.826667c0 1.706667 0 3.413333 1.706667 5.12 0 3.413333 3.413333 6.826667 6.826667 6.826666H172.373333c3.413333 0 8.533333 0 11.946667-1.706666 8.533333-3.413333 11.946667-10.24 11.946667-17.066667 0-3.413333-1.706667-6.826667-1.706667-8.533333-1.706667-6.826667-6.826667-10.24-13.653333-11.946667-5.12-1.706667-10.24-1.706667-13.653334-1.706667H124.586667c-5.12 0-8.533333 3.413333-8.533334 8.533334v3.413333l-1.706666 1.706667-1.706667-1.706667v-1.706667-23.893333h1.706667c0 1.706667 0 1.706667 1.706666 3.413333 1.706667 3.413333 3.413333 5.12 6.826667 5.12h49.493333c5.12 0 10.24 1.706667 13.653334 3.413334 3.413333 1.706667 5.12 3.413333 6.826666 6.826666l5.12 10.24c1.706667 5.12 1.706667 11.946667 1.706667 15.36s0 8.533333-1.706667 11.946667c-3.413333 8.533333-8.533333 13.653333-17.066666 15.36-3.413333 1.706667-8.533333 1.706667-11.946667 1.706667H124.586667c-3.413333 0-6.826667 1.706667-6.826667 6.826666 0 1.706667 0 1.706667-1.706667 3.413334h-1.706666v-3.413334-29.013333c0-3.413333 0-6.826667 1.706666-8.533333-1.706667 0 0 0 0 0zM395.946667 139.946667c0-1.706667 0-1.706667 0 0 8.533333-5.12 15.36-6.826667 22.186666-10.24h1.706667v1.706666l-1.706667 1.706667c-5.12 3.413333-5.12 5.12-3.413333 11.946667 3.413333 8.533333 5.12 15.36 8.533333 23.893333 1.706667 5.12 3.413333 11.946667 5.12 15.36 1.706667 5.12 1.706667 10.24 3.413334 13.653333 0 6.826667-3.413333 13.653333-8.533334 15.36-11.946667 8.533333-22.186667 13.653333-37.546666 11.946667-6.826667 0-11.946667-5.12-15.36-11.946667 0-1.706667-1.706667-3.413333-1.706667-6.826666-5.12-13.653333-10.24-27.306667-13.653333-39.253334 0-1.706667-1.706667-5.12-3.413334-6.826666-1.706667-3.413333-3.413333-5.12-8.533333-3.413334H341.333333c-1.706667 0-3.413333 1.706667-3.413333 0s1.706667-1.706667 1.706667-1.706666c11.946667-5.12 23.893333-8.533333 35.84-13.653334 1.706667 0 1.706667 1.706667 0 1.706667-1.706667 1.706667-3.413333 1.706667-5.12 1.706667-1.706667 1.706667-3.413333 1.706667-3.413334 5.12s0 5.12 1.706667 8.533333c5.12 11.946667 8.533333 23.893333 13.653333 35.84 1.706667 3.413333 3.413333 6.826667 3.413334 10.24 1.706667 3.413333 3.413333 5.12 5.12 8.533333 3.413333 3.413333 8.533333 5.12 11.946666 5.12 5.12-1.706667 10.24-3.413333 13.653334-6.826666 5.12-5.12 6.826667-10.24 5.12-15.36 0-3.413333-1.706667-6.826667-3.413334-11.946667-5.12-11.946667-8.533333-23.893333-11.946666-35.84 0-1.706667-1.706667-3.413333-1.706667-5.12-3.413333-1.706667-6.826667-3.413333-8.533333-3.413333 1.706667 0 0 0 0 0zM785.066667 363.52c5.12-3.413333 11.946667-8.533333 25.6-11.946667l1.706666 1.706667-6.826666 6.826667c-3.413333 3.413333-6.826667 8.533333-8.533334 13.653333-1.706667 8.533333 1.706667 17.066667 8.533334 22.186667s15.36 1.706667 18.773333-5.12c1.706667-3.413333 1.706667-6.826667 1.706667-10.24 0-6.826667 0-13.653333 1.706666-20.48 0-3.413333 1.706667-8.533333 3.413334-11.946667 3.413333-8.533333 10.24-11.946667 17.066666-13.653333 10.24-1.706667 17.066667 1.706667 23.893334 10.24 3.413333 5.12 6.826667 10.24 6.826666 15.36 0 3.413333 0 5.12 1.706667 8.533333 0 1.706667 1.706667 3.413333 5.12 5.12 1.706667 0 1.706667 0 3.413333 3.413333l-1.706666 1.706667c-6.826667 3.413333-13.653333 5.12-17.066667 8.533333h-3.413333v-1.706666c0-1.706667 1.706667-1.706667 1.706666-1.706667 1.706667-3.413333 5.12-5.12 6.826667-8.533333 3.413333-6.826667 5.12-11.946667 3.413333-18.773334 0-3.413333-1.706667-5.12-3.413333-6.826666-3.413333-5.12-8.533333-6.826667-13.653333-5.12s-8.533333 5.12-10.24 10.24c0 3.413333-1.706667 6.826667-1.706667 10.24v18.773333c0 8.533333-3.413333 15.36-11.946667 20.48-11.946667 8.533333-25.6 6.826667-35.84-6.826667-5.12-6.826667-8.533333-13.653333-10.24-23.893333v-3.413333c0-1.706667-1.706667-5.12-5.12-5.12l-1.706666-1.706667zM887.466667 646.826667c0-1.706667-1.706667-1.706667-1.706667-3.413334 0-3.413333-1.706667-5.12-3.413333-6.826666l-8.533334-8.533334c-6.826667-6.826667-13.653333-13.653333-20.48-18.773333-3.413333-3.413333-5.12-5.12-10.24-5.12-6.826667-1.706667-13.653333-3.413333-18.773333-5.12h-1.706667c-5.12 0-6.826667 0-10.24 5.12 0 1.706667 0 3.413333-3.413333 3.413333v-3.413333c1.706667-5.12 1.706667-11.946667 3.413333-15.36 1.706667-6.826667 3.413333-13.653333 5.12-18.773333v-1.706667h3.413334v3.413333c0 6.826667 1.706667 8.533333 6.826666 10.24 6.826667 1.706667 13.653333 3.413333 18.773334 5.12h6.826666c5.12-1.706667 10.24-3.413333 13.653334-3.413333 8.533333-1.706667 15.36-5.12 25.6-6.826667 5.12-1.706667 8.533333-3.413333 11.946666-8.533333 0 0 1.706667 0 1.706667-1.706667v5.12c-3.413333 11.946667-5.12 22.186667-8.533333 35.84-1.706667-1.706667 0-3.413333 0-3.413333 0-6.826667-1.706667-8.533333-8.533334-6.826667-10.24 3.413333-20.48 5.12-30.72 8.533334-1.706667 0-1.706667 1.706667-3.413333 1.706666 0 1.706667 1.706667 1.706667 1.706667 1.706667l18.773333 18.773333c1.706667 1.706667 5.12 3.413333 8.533333 5.12s5.12 0 6.826667-1.706666c1.706667-1.706667 1.706667-3.413333 3.413333-5.12l1.706667-1.706667c1.706667 0 1.706667 1.706667 1.706667 3.413333-1.706667 5.12-1.706667 10.24-3.413334 13.653334 0 1.706667 0 3.413333-1.706666 5.12-1.706667-1.706667-3.413333 0-5.12 0 1.706667 0 0 0 0 0zM827.733333 482.986667c1.706667 1.706667 1.706667 3.413333 1.706667 5.12 0 3.413333 3.413333 6.826667 8.533333 6.826666h10.24c8.533333 0 15.36 0 23.893334-1.706666 11.946667 0 20.48-1.706667 32.426666-1.706667h5.12c1.706667-13.653333-6.826667-20.48-13.653333-22.186667-1.706667 0-3.413333 0-6.826667-1.706666v-1.706667H887.466667 907.946667v1.706667c1.706667 22.186667 1.706667 44.373333 3.413333 66.56v3.413333c-3.413333 1.706667-8.533333 1.706667-11.946667 1.706667H887.466667c0-3.413333 0-3.413333 1.706666-3.413334 3.413333 0 6.826667-1.706667 8.533334-3.413333 5.12-3.413333 8.533333-6.826667 10.24-11.946667v-5.12-5.12h-6.826667c-10.24 0-18.773333 0-29.013333 1.706667h-34.133334-1.706666c-6.826667 1.706667-8.533333 3.413333-8.533334 10.24v1.706667s0 1.706667-1.706666 1.706666-1.706667 0-1.706667-1.706666v-8.533334c0-10.24 0-18.773333-1.706667-29.013333 3.413333 0 3.413333 0 5.12-3.413333-1.706667 0 0 0 0 0zM267.946667 315.733333c-5.12 8.533333-18.773333 29.013333-20.48 32.426667-1.706667 0-1.706667-1.706667-1.706667-1.706667 0-1.706667 1.706667-3.413333 1.706667-6.826666 0-1.706667 0-5.12-3.413334-5.12-5.12-1.706667-10.24-1.706667-13.653333-3.413334-1.706667 0-3.413333 0-3.413333 1.706667-5.12 6.826667-10.24 13.653333-13.653334 22.186667 3.413333 5.12 5.12 10.24 10.24 13.653333 1.706667 1.706667 3.413333 1.706667 6.826667 0l5.12-5.12h1.706667v3.413333c-3.413333 5.12-6.826667 10.24-10.24 13.653334 0 1.706667-1.706667 1.706667-3.413334 3.413333l-1.706666-1.706667c1.706667-6.826667-1.706667-11.946667-5.12-13.653333-6.826667-8.533333-13.653333-15.36-17.066667-25.6-8.533333-11.946667-15.36-22.186667-23.893333-34.133333 0-1.706667-1.706667-1.706667-1.706667-3.413334s-1.706667-1.706667 0-3.413333 1.706667-1.706667 3.413333-1.706667 5.12 0 6.826667 1.706667c8.533333 1.706667 15.36 3.413333 23.893333 5.12l30.72 5.12c6.826667 1.706667 13.653333 1.706667 20.48 3.413333 3.413333 0 5.12 0 8.533334-1.706666-1.706667 1.706667 0 0 0 1.706666z m-76.8 10.24s0 1.706667 0 0c6.826667 8.533333 13.653333 15.36 17.066666 22.186667l1.706667 1.706667c1.706667-3.413333 11.946667-15.36 13.653333-17.066667v-1.706667c-10.24-3.413333-27.306667-6.826667-32.426666-5.12zM614.4 133.12c1.706667-1.706667 1.706667-1.706667 0 0 1.706667-1.706667 1.706667-1.706667 0 0 13.653333 3.413333 25.6 8.533333 37.546667 11.946667l1.706666 1.706666c0 1.706667-1.706667 1.706667-1.706666 1.706667-1.706667 0-3.413333-1.706667-5.12-1.706667s-3.413333 0-5.12 3.413334c0 1.706667-1.706667 3.413333-1.706667 5.12 0 15.36 0 30.72 1.706667 46.08v1.706666c1.706667 0 1.706667 0 3.413333-1.706666 8.533333-8.533333 13.653333-15.36 22.186667-23.893334l8.533333-8.533333c0-1.706667 1.706667-1.706667 1.706667-3.413333 1.706667-3.413333 1.706667-6.826667-1.706667-8.533334-1.706667-1.706667-3.413333-1.706667-5.12-3.413333 0 0 0-1.706667 1.706667-1.706667h1.706666c6.826667 3.413333 13.653333 5.12 20.48 8.533334l1.706667 1.706666c0 1.706667-1.706667 1.706667-1.706667 1.706667-5.12 0-8.533333 1.706667-11.946666 5.12-5.12 5.12-8.533333 10.24-13.653334 13.653333-10.24 11.946667-18.773333 20.48-29.013333 32.426667-3.413333 3.413333-5.12 6.826667-8.533333 8.533333l-3.413334 3.413334s-1.706667 0-1.706666-1.706667v-5.12c0-6.826667 0-11.946667-1.706667-17.066667 0-10.24 0-18.773333-1.706667-30.72 0-8.533333-1.706667-17.066667-1.706666-25.6 1.706667-6.826667 0-10.24-6.826667-13.653333zM595.626667 131.413333h-5.12c-5.12 0-6.826667 1.706667-8.533334 6.826667 0 3.413333-1.706667 5.12-1.706666 8.533333-1.706667 10.24-3.413333 18.773333-5.12 29.013334-1.706667 6.826667-3.413333 13.653333-3.413334 20.48v5.12c0 3.413333 1.706667 6.826667 5.12 8.533333 1.706667 0 1.706667 0 3.413334 1.706667 1.706667 0 1.706667 1.706667 3.413333 1.706666-1.706667 0-1.706667 1.706667-1.706667 1.706667h-3.413333c-11.946667-1.706667-23.893333-5.12-35.84-6.826667h-1.706667c0-1.706667 0-1.706667 1.706667-1.706666h5.12c5.12 0 6.826667-1.706667 6.826667-6.826667 1.706667-6.826667 1.706667-11.946667 3.413333-17.066667 1.706667-11.946667 3.413333-20.48 5.12-32.426666 0-3.413333 1.706667-8.533333 1.706667-11.946667 1.706667-3.413333-1.706667-8.533333-5.12-10.24-1.706667 0-1.706667 0-3.413334-1.706667l-1.706666-1.706666 1.706666-1.706667c10.24 0 22.186667 3.413333 35.84 5.12 0 0 1.706667 0 3.413334 3.413333zM892.586667 401.066667c1.706667 0 1.706667 1.706667 0 0 1.706667 3.413333 3.413333 5.12 3.413333 8.533333 3.413333 10.24 5.12 20.48 8.533333 30.72v3.413333l-1.706666 1.706667c-1.706667-1.706667-1.706667-3.413333-3.413334-5.12-1.706667-3.413333-5.12-5.12-8.533333-5.12H887.466667c-17.066667 5.12-35.84 10.24-54.613334 13.653333-1.706667 0-3.413333 0-5.12 1.706667-3.413333 1.706667-6.826667 3.413333-6.826666 8.533333v5.12s0 1.706667-1.706667 1.706667c0-1.706667-1.706667-1.706667-1.706667-1.706667-3.413333-11.946667-6.826667-25.6-10.24-37.546666v-1.706667s1.706667 0 1.706667 1.706667c1.706667 1.706667 1.706667 3.413333 1.706667 5.12 1.706667 3.413333 3.413333 3.413333 6.826666 3.413333 1.706667 0 5.12 0 6.826667-1.706667 17.066667-5.12 37.546667-10.24 54.613333-13.653333h3.413334c3.413333-1.706667 5.12-3.413333 5.12-8.533333 5.12-6.826667 5.12-8.533333 5.12-10.24zM343.04 766.293333c-3.413333 5.12-51.2 71.68-56.32 75.093334-3.413333-1.706667-5.12-3.413333-8.533333-6.826667 3.413333-3.413333 6.826667-8.533333 8.533333-11.946667 3.413333-3.413333 6.826667-8.533333 8.533333-11.946666 3.413333-3.413333 6.826667-8.533333 8.533334-11.946667 3.413333-3.413333 6.826667-8.533333 8.533333-11.946667 3.413333-3.413333 6.826667-8.533333 8.533333-11.946666-6.826667-3.413333-13.653333-5.12-22.186666-3.413334h-3.413334c1.706667-3.413333 3.413333-6.826667 6.826667-10.24 6.826667 0 13.653333 1.706667 17.066667 0 6.826667 0 11.946667-1.706667 17.066666-3.413333 3.413333 5.12 5.12 6.826667 6.826667 8.533333-3.413333 5.12-1.706667-1.706667 0 0zM445.44 453.973333c6.826667 0 17.066667-13.653333 22.186667-17.066666 8.533333-10.24 17.066667-18.773333 25.6-29.013334 1.706667-1.706667 3.413333-5.12 3.413333-8.533333 1.706667-11.946667 0-23.893333 0-37.546667-1.706667-1.706667-3.413333-1.706667-5.12-1.706666-10.24 10.24-23.893333 17.066667-37.546667 22.186666-17.066667 8.533333-1.706667-22.186667 0-25.6 10.24-10.24 20.48-22.186667 32.426667-34.133333 6.826667-10.24 8.533333-18.773333 10.24-30.72 1.706667-11.946667 3.413333-32.426667 15.36-37.546667 10.24-10.24 18.773333 20.48 18.773333 27.306667 1.706667 13.653333-5.12 25.6-11.946666 37.546667-3.413333 5.12-6.826667 10.24-10.24 13.653333-3.413333 3.413333 6.826667 11.946667 10.24 15.36 5.12 6.826667 8.533333 17.066667 6.826666 27.306667 0 8.533333-1.706667 15.36-5.12 23.893333 0 8.533333-3.413333 8.533333 3.413334 17.066667 5.12 6.826667 5.12 15.36 5.12 23.893333-1.706667 10.24-3.413333 18.773333-8.533334 29.013333-6.826667 17.066667-15.36 34.133333-20.48 51.2-1.706667 10.24-3.413333 18.773333-5.12 29.013334-3.413333 27.306667 0 54.613333 0 83.626666 1.706667 10.24 1.706667 20.48 3.413334 30.72 1.706667 11.946667 3.413333 20.48 5.12 32.426667 3.413333 17.066667 6.826667 37.546667 11.946666 54.613333 0 1.706667 0 3.413333 1.706667 5.12v5.12c-1.706667 3.413333-3.413333 5.12-6.826667 5.12-8.533333-1.706667-13.653333-5.12-17.066666-13.653333s-6.826667-17.066667-8.533334-25.6c-1.706667-10.24-5.12-18.773333-6.826666-29.013333-1.706667-6.826667-1.706667-11.946667-3.413334-18.773334-1.706667-10.24-3.413333-18.773333-5.12-29.013333 0-5.12-1.706667-8.533333-3.413333-11.946667 0-3.413333-1.706667-5.12-3.413333-8.533333-8.533333-8.533333-30.72-5.12-40.96-3.413333-5.12 0-8.533333 1.706667-13.653334 1.706666-10.24 1.706667-17.066667 3.413333-27.306666 5.12-13.653333 3.413333-29.013333 6.826667-44.373334 10.24-10.24 1.706667-18.773333 3.413333-29.013333 5.12-8.533333 1.706667-15.36 0-23.893333-3.413333-3.413333-3.413333-6.826667-1.706667-8.533334-6.826667-1.706667-3.413333 1.706667-10.24 5.12-10.24 3.413333-1.706667 6.826667-3.413333 8.533334-3.413333 8.533333-3.413333 17.066667-5.12 25.6-6.826667 11.946667-1.706667 22.186667-3.413333 34.133333-5.12h10.24c11.946667-1.706667 20.48-1.706667 32.426667-3.413333 15.36 0 29.013333 0 44.373333-3.413333 5.12 0 8.533333-1.706667 13.653333-1.706667 5.12-1.706667 10.24-3.413333 13.653334-6.826667 3.413333-1.706667 3.413333-5.12 3.413333-8.533333-3.413333-11.946667-3.413333-25.6-1.706667-37.546667 1.706667-13.653333 5.12-29.013333 10.24-40.96s10.24-20.48 15.36-30.72c8.533333-10.24 11.946667-27.306667 8.533334-39.253333 0-1.706667-1.706667-1.706667-1.706667-3.413333-1.706667 1.706667-1.706667 1.706667-3.413333 1.706666-3.413333 5.12-8.533333 10.24-13.653334 11.946667-6.826667 6.826667-13.653333 10.24-22.186666 13.653333-5.12 1.706667-10.24 3.413333-13.653334 5.12-5.12 5.12-1.706667 8.533333-1.706666 13.653334 1.706667 10.24 1.706667 17.066667 1.706666 27.306666-1.706667 17.066667-6.826667 32.426667-18.773333 42.666667-8.533333 8.533333-18.773333 13.653333-30.72 17.066667-13.653333 5.12-29.013333 6.826667-44.373333 5.12-6.826667 0-13.653333 0-18.773334-1.706667-10.24-1.706667-18.773333-3.413333-29.013333-10.24-6.826667-3.413333-13.653333-10.24-17.066667-15.36-8.533333-10.24-11.946667-22.186667-15.36-34.133333-6.826667-20.48-8.533333-40.96-6.826666-64.853334 0-5.12 1.706667-11.946667 5.12-15.36 5.12-11.946667 13.653333-20.48 23.893333-29.013333 13.653333-10.24 25.6-13.653333 39.253333-17.066667 20.48-5.12 46.08-5.12 64.853334 3.413334 1.706667 0 3.413333 1.706667 5.12 1.706666 22.186667 6.826667 29.013333 30.72 35.84 49.493334 0 3.413333 1.706667 6.826667 1.706666 8.533333 5.12 1.706667 5.12 3.413333 6.826667 3.413333z m-133.12 22.186667c13.653333 0 30.72 0 44.373333-3.413333 15.36 0 37.546667 1.706667 52.906667-3.413334 3.413333 0 5.12-1.706667 5.12-3.413333 3.413333-5.12 5.12-11.946667 6.826667-17.066667 1.706667-8.533333 0-13.653333-5.12-20.48-3.413333-5.12-8.533333-8.533333-13.653334-11.946666-13.653333-6.826667-30.72-11.946667-46.08-10.24-10.24 1.706667-18.773333 3.413333-27.306666 6.826666-6.826667 1.706667-11.946667 5.12-18.773334 10.24-15.36 11.946667-18.773333 30.72-13.653333 47.786667 0 3.413333 1.706667 3.413333 5.12 3.413333 1.706667 1.706667 6.826667 1.706667 10.24 1.706667z m109.226667 17.066667c-5.12-1.706667-8.533333 0-11.946667 0-13.653333 1.706667-27.306667 1.706667-40.96 3.413333-22.186667 0-44.373333 3.413333-64.853333 3.413333-1.706667 0-1.706667 1.706667-1.706667 1.706667 0 13.653333 3.413333 25.6 13.653333 35.84 11.946667 11.946667 25.6 13.653333 40.96 17.066667 10.24 1.706667 17.066667 0 27.306667-3.413334 6.826667-1.706667 13.653333-5.12 20.48-8.533333 8.533333-5.12 13.653333-11.946667 17.066667-18.773333 1.706667-10.24 1.706667-22.186667 0-30.72-5.12-1.706667 1.706667 8.533333 0 0z" fill="#DA251B" p-id="3587"></path><path d="M684.373333 643.413333c-8.533333 0-17.066667-1.706667-23.893333 1.706667-1.706667 0-3.413333 1.706667-3.413333 1.706667-8.533333 3.413333-5.12 15.36-1.706667 20.48 3.413333 11.946667 10.24 20.48 13.653333 32.426666 1.706667 3.413333 5.12 6.826667 6.826667 11.946667 1.706667 3.413333 1.706667 6.826667-1.706667 8.533333-13.653333 8.533333-23.893333 1.706667-30.72-10.24-8.533333-13.653333-13.653333-29.013333-17.066666-42.666666-3.413333-8.533333-11.946667-3.413333-18.773334-3.413334-15.36 5.12-30.72 11.946667-44.373333 17.066667-8.533333 3.413333-13.653333 8.533333-22.186667 11.946667-5.12 0-8.533333 3.413333-11.946666-3.413334-1.706667-5.12-1.706667-11.946667 0-15.36 0-1.706667 1.706667-3.413333 3.413333-5.12 3.413333-1.706667 5.12-3.413333 8.533333-5.12 8.533333-3.413333 15.36-6.826667 23.893334-10.24 13.653333-5.12 23.893333-8.533333 37.546666-13.653333 10.24-5.12 17.066667-6.826667 18.773334-18.773333 0-5.12 0-8.533333-3.413334-13.653334-1.706667-1.706667-5.12-1.706667-8.533333-1.706666-22.186667 10.24-44.373333 20.48-66.56 32.426666-6.826667 1.706667-13.653333 0-18.773333-6.826666-6.826667-8.533333 6.826667-15.36 13.653333-15.36 11.946667-3.413333 22.186667-8.533333 34.133333-11.946667 13.653333-5.12 27.306667-8.533333 40.96-13.653333 3.413333-1.706667 8.533333-3.413333 8.533334-8.533334V580.266667c3.413333-10.24-10.24-11.946667-17.066667-8.533334-5.12 1.706667-10.24 1.706667-13.653333 3.413334-5.12 1.706667-8.533333 1.706667-11.946667 3.413333-1.706667 0-5.12 0-6.826667 1.706667-11.946667 0-15.36-13.653333-6.826666-20.48 5.12 0 11.946667-3.413333 17.066666-3.413334 11.946667-1.706667 22.186667-3.413333 34.133334-6.826666 10.24-1.706667 17.066667-5.12 27.306666-6.826667 5.12-1.706667 8.533333-1.706667 13.653334-3.413333 6.826667-1.706667 10.24 1.706667 13.653333 6.826666 6.826667 6.826667-6.826667 11.946667-11.946667 13.653334-1.706667 1.706667-5.12 1.706667-6.826666 3.413333-3.413333 1.706667-5.12 3.413333-3.413334 6.826667 0 5.12 5.12 6.826667 10.24 6.826666 10.24-1.706667 18.773333-1.706667 29.013334-5.12 1.706667 0 3.413333-1.706667 3.413333-1.706666 5.12-1.706667 6.826667-3.413333 8.533333-8.533334 5.12-8.533333 8.533333-20.48 15.36-27.306666 5.12-5.12 20.48 3.413333 17.066667 11.946666-5.12 13.653333-6.826667 29.013333-8.533333 44.373334-1.706667 11.946667-3.413333 22.186667-5.12 34.133333 0 3.413333 0 6.826667-1.706667 10.24 0 3.413333-3.413333 6.826667-6.826667 6.826667-6.826667 3.413333-17.066667 1.706667-25.6 1.706666z m-23.893333-15.36c11.946667 0 18.773333-3.413333 27.306667-8.533333 10.24-6.826667 5.12-15.36 5.12-23.893333s-17.066667-5.12-20.48-3.413334c-6.826667 1.706667-13.653333 3.413333-18.773334 5.12-3.413333 1.706667-6.826667 5.12-8.533333 8.533334 0 1.706667 0 3.413333-1.706667 3.413333 0 3.413333-1.706667 8.533333 0 11.946667 0 3.413333 3.413333 5.12 6.826667 6.826666 5.12-1.706667 8.533333-1.706667 10.24 0 11.946667 0-1.706667-1.706667 0 0zM622.933333 453.973333c-11.946667 0-25.6 1.706667-37.546666-1.706666-6.826667 0-11.946667-1.706667-17.066667-3.413334-3.413333 0-5.12-1.706667-6.826667-1.706666l-5.12-5.12c-6.826667-15.36-1.706667-34.133333 11.946667-44.373334 5.12-3.413333 10.24-6.826667 15.36-8.533333 8.533333-3.413333 17.066667-5.12 25.6-6.826667 6.826667-1.706667 11.946667-1.706667 17.066667-1.706666 10.24-1.706667 17.066667-1.706667 27.306666-3.413334 18.773333 0 35.84-3.413333 52.906667 3.413334s27.306667 25.6 22.186667 44.373333c-6.826667 22.186667-37.546667 23.893333-58.026667 23.893333-11.946667 1.706667-20.48 3.413333-32.426667 3.413334-3.413333 0-10.24 1.706667-15.36 1.706666z m44.373334-56.32c0-1.706667 0-1.706667 0 0-13.653333 0-27.306667 0-39.253334 3.413334-8.533333 0-15.36 1.706667-23.893333 3.413333-5.12 1.706667-11.946667 3.413333-15.36 6.826667-6.826667 5.12-10.24 11.946667-6.826667 17.066666 0 1.706667 1.706667 3.413333 5.12 5.12 10.24 0 20.48 3.413333 30.72 0 23.893333 0 47.786667-5.12 71.68-5.12 10.24-1.706667 13.653333-10.24 11.946667-15.36s-5.12-8.533333-8.533333-10.24c-5.12-3.413333-10.24-5.12-13.653334-5.12-5.12-1.706667-8.533333 0-11.946666 0 0-1.706667 3.413333 0 0 0zM605.866667 529.066667c-15.36 0-29.013333 0-42.666667-3.413334h-1.706667c-15.36-3.413333-17.066667-23.893333-10.24-37.546666 3.413333-5.12 8.533333-8.533333 13.653334-11.946667 8.533333-3.413333 15.36-6.826667 23.893333-8.533333 10.24-1.706667 17.066667-3.413333 27.306667-3.413334 13.653333-1.706667 29.013333-1.706667 40.96-3.413333 17.066667 0 32.426667-1.706667 49.493333 3.413333 11.946667 3.413333 18.773333 10.24 22.186667 20.48 3.413333 6.826667 3.413333 13.653333 0 20.48-1.706667 6.826667-6.826667 10.24-13.653334 11.946667-6.826667 3.413333-17.066667 0-23.893333 3.413333-11.946667 0-23.893333 1.706667-35.84 1.706667-11.946667 5.12-30.72 6.826667-49.493333 6.826667z m73.386666-22.186667c8.533333 0 17.066667 0 23.893334-3.413333 5.12-3.413333 5.12-8.533333 1.706666-11.946667-5.12-11.946667-23.893333-10.24-34.133333-11.946667-17.066667-1.706667-34.133333-1.706667-51.2 0-8.533333 0-13.653333 1.706667-22.186667 3.413334-6.826667 3.413333-13.653333 3.413333-17.066666 11.946666-3.413333 5.12 1.706667 13.653333 8.533333 13.653334 5.12 1.706667 11.946667 1.706667 15.36 0 6.826667 0 13.653333-1.706667 20.48-1.706667 11.946667-1.706667 20.48-1.706667 32.426667-3.413333 6.826667 5.12 15.36 3.413333 22.186666 3.413333zM628.053333 334.506667c15.36 0 32.426667 1.706667 46.08 3.413333 10.24 1.706667 18.773333 3.413333 29.013334 5.12 6.826667 1.706667 13.653333 3.413333 18.773333 6.826667 1.706667 0 3.413333 1.706667 5.12 3.413333 5.12 3.413333 5.12 8.533333 1.706667 13.653333-1.706667 1.706667-5.12 3.413333-8.533334 5.12-3.413333 0-8.533333 0-11.946666-1.706666-20.48-8.533333-49.493333-10.24-69.973334-6.826667-11.946667 0-20.48 0-32.426666 1.706667-8.533333 0-13.653333 1.706667-22.186667 3.413333-11.946667 0-23.893333 3.413333-37.546667 3.413333-5.12 0-13.653333-1.706667-15.36-8.533333-1.706667-3.413333 3.413333-10.24 6.826667-10.24 5.12-1.706667 10.24-3.413333 13.653333-5.12 11.946667-3.413333 23.893333-5.12 37.546667-6.826667h8.533333c11.946667-6.826667 22.186667-6.826667 30.72-6.826666z" fill="#DA251B" p-id="3588"></path><path d="M512 805.546667c-160.426667 0-290.133333-131.413333-290.133333-291.84S351.573333 221.866667 512 221.866667s290.133333 131.413333 290.133333 291.84-129.706667 291.84-290.133333 291.84z m0-570.026667c-153.6 0-278.186667 124.586667-278.186667 278.186667S358.4 791.893333 512 791.893333s278.186667-124.586667 278.186667-278.186666c0-151.893333-124.586667-278.186667-278.186667-278.186667z" fill="#D5271C" p-id="3589"></path><path d="M512 225.28c-158.72 0-288.426667 129.706667-288.426667 290.133333s129.706667 290.133333 288.426667 290.133334 288.426667-129.706667 288.426667-290.133334-129.706667-290.133333-288.426667-290.133333z m0 568.32c-153.6 0-279.893333-124.586667-279.893333-279.893333S358.4 233.813333 512 233.813333 791.893333 358.4 791.893333 513.706667 665.6 793.6 512 793.6z" fill="#D5271C" p-id="3590"></path></svg>